<svg xmlns="http://www.w3.org/2000/svg" viewBox="0 0 64 64">
  <!-- Background -->
  <rect width="64" height="64" rx="12" fill="#1976d2" />
  
  <!-- Server rack container -->
  <rect x="16" y="12" width="32" height="40" rx="4" fill="white" opacity="0.95" />
  <rect x="18" y="14" width="28" height="36" rx="2" fill="#f5f5f5" />
  
  <!-- Server units -->
  <rect x="20" y="18" width="24" height="6" rx="1" fill="#4caf50" opacity="0.8" />
  <rect x="20" y="26" width="24" height="6" rx="1" fill="#ff9800" opacity="0.8" />
  <rect x="20" y="34" width="24" height="6" rx="1" fill="#f44336" opacity="0.8" />
  <rect x="20" y="42" width="24" height="6" rx="1" fill="#1976d2" opacity="0.8" />
  
  <!-- Status indicators -->
  <circle cx="22" cy="21" r="1.5" fill="white" />
  <circle cx="22" cy="29" r="1.5" fill="white" />
  <circle cx="22" cy="37" r="1.5" fill="white" />
  <circle cx="22" cy="45" r="1.5" fill="white" />
  
  <!-- API endpoints -->
  <circle cx="12" cy="24" r="3" fill="#4caf50" opacity="0.9" />
  <circle cx="12" cy="32" r="3" fill="#ff9800" opacity="0.9" />
  <circle cx="12" cy="40" r="3" fill="#f44336" opacity="0.9" />
  
  <!-- Connection lines -->
  <line x1="15" y1="24" x2="18" y2="24" stroke="white" stroke-width="1.5" />
  <line x1="15" y1="32" x2="18" y2="32" stroke="white" stroke-width="1.5" />
  <line x1="15" y1="40" x2="18" y2="40" stroke="white" stroke-width="1.5" />
  
  <!-- Output connections -->
  <circle cx="52" cy="28" r="2" fill="white" opacity="0.9" />
  <circle cx="52" cy="36" r="2" fill="white" opacity="0.9" />
  
  <line x1="46" y1="28" x2="50" y2="28" stroke="white" stroke-width="1.5" />
  <line x1="46" y1="36" x2="50" y2="36" stroke="white" stroke-width="1.5" />
</svg>
