<svg xmlns="http://www.w3.org/2000/svg" viewBox="0 0 64 64">
  <!-- Background -->
  <rect width="64" height="64" rx="12" fill="#1976d2" />
  
  <!-- Input Sources using logo colors -->
  <circle cx="16" cy="20" r="4" fill="#4caf50" opacity="0.9" />
  <circle cx="16" cy="32" r="4" fill="#ff9800" opacity="0.9" />
  <circle cx="16" cy="44" r="4" fill="#f44336" opacity="0.9" />
  
  <!-- Central Processor -->
  <circle cx="32" cy="32" r="8" fill="white" opacity="0.95" />
  <circle cx="32" cy="32" r="4" fill="#1976d2" opacity="0.8" />
  
  <!-- Small indicators in center -->
  <circle cx="30" cy="30" r="1" fill="white" />
  <circle cx="34" cy="30" r="1" fill="white" />
  <circle cx="30" cy="34" r="1" fill="white" />
  <circle cx="34" cy="34" r="1" fill="white" />
  
  <!-- Output Destinations using logo colors -->
  <rect x="44" y="16" width="8" height="8" rx="2" fill="#4caf50" opacity="0.9" />
  <rect x="44" y="28" width="8" height="8" rx="2" fill="#ff9800" opacity="0.9" />
  <rect x="44" y="40" width="8" height="8" rx="2" fill="#f44336" opacity="0.9" />
  
  <!-- Flow Lines -->
  <line x1="20" y1="20" x2="24" y2="26" stroke="white" stroke-width="2" opacity="0.8" />
  <line x1="20" y1="32" x2="24" y2="32" stroke="white" stroke-width="2" opacity="0.8" />
  <line x1="20" y1="44" x2="24" y2="38" stroke="white" stroke-width="2" opacity="0.8" />
  
  <line x1="40" y1="26" x2="44" y2="20" stroke="white" stroke-width="2" opacity="0.8" />
  <line x1="40" y1="32" x2="44" y2="32" stroke="white" stroke-width="2" opacity="0.8" />
  <line x1="40" y1="38" x2="44" y2="44" stroke="white" stroke-width="2" opacity="0.8" />
  
  <!-- Additional processing indicators -->
  <circle cx="8" cy="32" r="2" fill="white" opacity="0.8" />
  <circle cx="56" cy="32" r="2" fill="white" opacity="0.8" />
  
  <line x1="10" y1="32" x2="12" y2="32" stroke="white" stroke-width="1.5" />
  <line x1="52" y1="32" x2="54" y2="32" stroke="white" stroke-width="1.5" />
</svg>
