<svg xmlns="http://www.w3.org/2000/svg" viewBox="0 0 64 64">
  <!-- Background -->
  <rect width="64" height="64" rx="12" fill="#1976d2" />
  
  <!-- Device Screen -->
  <rect x="12" y="12" width="40" height="28" rx="4" fill="white" opacity="0.95" />
  <rect x="14" y="14" width="36" height="24" rx="2" fill="#f5f5f5" />
  
  <!-- Browser Bar -->
  <rect x="14" y="14" width="36" height="4" fill="#e0e0e0" />
  <circle cx="17" cy="16" r="1" fill="#f44336" />
  <circle cx="20" cy="16" r="1" fill="#ff9800" />
  <circle cx="23" cy="16" r="1" fill="#4caf50" />
  
  <!-- UI Components using logo colors -->
  <rect x="16" y="22" width="32" height="3" rx="1" fill="#4caf50" opacity="0.8" />
  
  <rect x="16" y="28" width="8" height="6" rx="1" fill="#ff9800" opacity="0.8" />
  <rect x="28" y="28" width="8" height="6" rx="1" fill="#f44336" opacity="0.8" />
  <rect x="40" y="28" width="8" height="6" rx="1" fill="#1976d2" opacity="0.8" />
  
  <!-- Device Stand -->
  <rect x="28" y="40" width="8" height="3" rx="1" fill="white" opacity="0.8" />
  <rect x="24" y="43" width="16" height="2" rx="1" fill="white" opacity="0.6" />
  
  <!-- Mobile indicators -->
  <circle cx="8" cy="24" r="2" fill="#4caf50" opacity="0.9" />
  <circle cx="8" cy="32" r="2" fill="#ff9800" opacity="0.9" />
  
  <circle cx="56" cy="24" r="2" fill="#f44336" opacity="0.9" />
  <circle cx="56" cy="32" r="2" fill="#1976d2" opacity="0.9" />
  
  <!-- Connection lines -->
  <line x1="10" y1="24" x2="12" y2="24" stroke="white" stroke-width="1.5" />
  <line x1="10" y1="32" x2="12" y2="32" stroke="white" stroke-width="1.5" />
  <line x1="52" y1="24" x2="54" y2="24" stroke="white" stroke-width="1.5" />
  <line x1="52" y1="32" x2="54" y2="32" stroke="white" stroke-width="1.5" />
</svg>
