<svg xmlns="http://www.w3.org/2000/svg" viewBox="0 0 64 64">
  <!-- Background -->
  <rect width="64" height="64" rx="12" fill="#1976d2" />
  
  <!-- Webhook icon container -->
  <circle cx="32" cy="32" r="26" fill="white" opacity="0.95" />
  <circle cx="32" cy="32" r="24" fill="#f5f5f5" />
  
  <!-- Central hub -->
  <circle cx="32" cy="32" r="6" fill="#1976d2" />
  <circle cx="32" cy="32" r="4" fill="white" />
  
  <!-- Connection nodes using the same color scheme -->
  <circle cx="18" cy="18" r="4" fill="#4caf50" opacity="0.9" />
  <circle cx="46" cy="18" r="4" fill="#ff9800" opacity="0.9" />
  <circle cx="32" cy="50" r="4" fill="#f44336" opacity="0.9" />
  <circle cx="18" cy="46" r="4" fill="#1976d2" opacity="0.9" />
  
  <!-- Connection lines -->
  <line x1="22" y1="22" x2="28" y2="28" stroke="#1976d2" stroke-width="2" opacity="0.8" />
  <line x1="42" y1="22" x2="36" y2="28" stroke="#1976d2" stroke-width="2" opacity="0.8" />
  <line x1="32" y1="46" x2="32" y2="38" stroke="#1976d2" stroke-width="2" opacity="0.8" />
  <line x1="22" y1="42" x2="28" y2="36" stroke="#1976d2" stroke-width="2" opacity="0.8" />
  
  <!-- Data flow indicators -->
  <circle cx="25" cy="25" r="1" fill="#1976d2" opacity="0.6" />
  <circle cx="39" cy="25" r="1" fill="#1976d2" opacity="0.6" />
  <circle cx="32" cy="42" r="1" fill="#1976d2" opacity="0.6" />
  <circle cx="25" cy="39" r="1" fill="#1976d2" opacity="0.6" />
  
  <!-- Pulse effect circles -->
  <circle cx="32" cy="32" r="12" fill="none" stroke="#1976d2" stroke-width="1" opacity="0.3" />
  <circle cx="32" cy="32" r="16" fill="none" stroke="#1976d2" stroke-width="1" opacity="0.2" />
</svg>
